Patient4_TMGait_0pt7_01_right_23_GRF.mot
version=1
nRows=58
nColumns=19
inDegrees=no
endheader
time	F1x	F1y	F1z	M1x	M1y	M1z	F2x	F2y	F2z	M2x	M2y	M2z	EC1x	EC1y	EC1z	EC2x	EC2y	EC2z
25.9	0.98803	758.9762	60.7635	-251.0377	-59.8739	760.9438	5.8619	11.728	13.9041	-0.16759	-9.6179	14.215	-0.0592	0.0182	-0.0073	-0.0462	0.0165	0.9585
25.9116	1.3257	752.5477	63.9358	-247.7029	-62.1598	755.3212	3.8612	8.8288	9.0508	0.32709	-6.1403	10.615	-0.0592	0.0182	-0.0073	-0.0462	0.0165	0.9585
25.9233	2.3144	744.7932	66.0235	-244.0246	-63.1401	747.1864	2.1099	6.395	5.0252	0.73363	-3.2492	7.5944	-0.0592	0.0182	-0.0073	-0.0462	0.0165	0.9585
25.9349	3.899	736.3965	66.9991	-240.2753	-62.8246	737.2297	0.71932	4.5752	2.0123	1.0428	-1.0804	5.3424	-0.0592	0.0182	-0.0073	-0.0462	0.0165	0.9585
25.9466	6.0013	728.1218	66.939	-236.7082	-61.3355	726.3584	-0.27217	3.3623	-0.027947	1.2622	0.38798	3.8425	-0.0592	0.0182	-0.0073	-0.0462	0.0165	0.9585
25.9582	8.4121	720.6042	66.1886	-233.4956	-59.079	715.4768	-0.93395	2.669	-1.2578	1.4067	1.2804	2.999	-0.0592	0.0182	-0.0073	-0.0462	0.0165	0.9585
25.9699	10.9683	714.2883	65.0153	-230.7399	-56.3805	705.2662	-1.3253	2.3548	-1.8737	1.4885	1.7388	2.6275	-0.0592	0.0182	-0.0073	-0.0462	0.0165	0.9585
25.9815	13.4745	709.4031	63.7642	-228.4672	-53.6467	696.1994	-1.5584	2.2779	-2.0752	1.5137	1.92	2.5615	-0.0592	0.0182	-0.0073	-0.0462	0.0165	0.9585
25.9931	15.8213	706.0005	62.6709	-226.6629	-51.1548	688.4802	-1.689	2.2557	-2.0247	1.4692	1.9392	2.5681	-0.0592	0.0182	-0.0073	-0.0462	0.0165	0.9585
26.0048	17.9395	704.0541	61.9224	-225.2995	-49.1132	682.1942	-1.7977	2.1437	-1.8542	1.3369	1.8999	2.4856	-0.0592	0.0182	-0.0073	-0.0462	0.0165	0.9585
26.0164	19.8403	703.4681	61.6381	-224.344	-47.6326	677.2831	-1.9035	1.7767	-1.6409	1.083	1.8504	2.106	-0.0592	0.0182	-0.0073	-0.0462	0.0165	0.9585
26.0281	21.5753	704.1388	61.8281	-223.7697	-46.705	673.6427	-2.0339	1.0356	-1.4398	0.67457	1.8274	1.288	-0.0592	0.0182	-0.0073	-0.0462	0.0165	0.9585
26.0397	23.2515	705.9125	62.5021	-223.5419	-46.3027	671.0753	-2.1407	-0.20129	-1.2621	0.076642	1.8105	-0.13312	-0.0592	0.0182	-0.0073	-0.0462	0.0165	0.9585
26.0514	25.003	708.6976	63.5518	-223.6518	-46.2822	669.4122	-2.1888	-1.9653	-1.1113	-0.71925	1.7733	-2.1827	-0.0592	0.0182	-0.0073	-0.0462	0.0165	0.9585
26.063	26.9724	712.458	64.9516	-224.1089	-46.569	668.5355	-2.0602	-4.2047	-0.96467	-1.6844	1.6374	-4.8169	-0.0592	0.0182	-0.0073	-0.0462	0.0165	0.9585
26.0746	29.302	717.1924	66.594	-224.9328	-47.0092	668.393	-1.6438	-6.654	-0.78736	-2.7102	1.3075	-7.7107	-0.0592	0.0182	-0.0073	-0.0462	0.0165	0.9585
26.0863	32.0837	722.8124	68.4313	-226.1135	-47.5139	668.8804	-0.74902	-8.8187	-0.53514	-3.5891	0.65726	-10.2961	-0.0592	0.0182	-0.0073	-0.0462	0.0165	0.9585
26.0979	35.3595	729.065	70.3301	-227.5846	-47.9337	669.7785	0.79505	-9.823	-0.15928	-3.9622	-0.43745	-11.5329	-0.0592	0.0182	-0.0073	-0.0462	0.0165	0.9585
26.1096	39.0985	735.4443	72.1884	-229.1915	-48.1681	670.663	3.1964	-8.4045	0.37701	-3.3014	-2.085	-9.9316	-0.0592	0.0182	-0.0073	-0.0462	0.0165	0.9585
26.1212	43.2173	741.2157	73.8765	-230.7021	-48.1195	670.9361	6.5418	-2.8297	1.0759	-0.88687	-4.3092	-3.4249	-0.0592	0.0182	-0.0073	-0.0462	0.0165	0.9585
26.1329	47.5758	745.3746	75.2716	-231.7965	-47.7224	669.7789	10.8055	8.9803	1.8926	4.1497	-7.0275	10.4201	-0.0592	0.0182	-0.0073	-0.0462	0.0165	0.9585
26.1445	51.9998	746.6735	76.2454	-232.0766	-46.9316	666.1972	15.622	29.2793	2.7118	12.7398	-9.944	34.2724	-0.0592	0.0182	-0.0073	-0.0462	0.0165	0.9585
26.1561	56.276	743.5682	76.609	-231.0585	-45.6636	658.951	20.2296	60.0179	3.3067	25.6849	-12.4559	70.4304	-0.0592	0.0182	-0.0073	-0.0462	0.0165	0.9585
26.1678	60.1728	734.376	76.1062	-228.2185	-43.7974	646.7006	23.0941	102.2319	3.3188	43.3877	-13.5028	120.1347	-0.0592	0.0182	-0.0073	-0.0462	0.0165	0.9585
26.1794	63.3995	717.3375	74.4049	-223.0154	-41.1677	628.042	21.9935	155.0886	2.3074	65.4683	-11.6528	182.4189	-0.0592	0.0182	-0.0073	-0.0462	0.0165	0.9585
26.1911	65.6192	690.875	71.1823	-214.9643	-37.6422	601.7388	15.0928	215.3845	-0.25443	90.5489	-5.5851	253.5129	-0.0592	0.0182	-0.0073	-0.0462	0.0165	0.9585
26.2027	66.4302	653.882	66.2371	-203.7208	-33.2018	566.9397	2.8613	278.0189	-4.6571	116.5048	4.7387	327.292	-0.0592	0.0182	-0.0073	-0.0462	0.0165	0.9585
26.2144	65.4417	606.0935	59.6013	-189.1856	-28.0117	523.4886	-12.1333	338.6478	-10.5617	141.5461	17.8209	398.3035	-0.0592	0.0182	-0.0073	-0.0462	0.0165	0.9585
26.226	62.3341	548.3658	51.6475	-171.5817	-22.4798	472.1647	-27.5273	395.677	-17.3225	165.0486	31.8851	464.2469	-0.0592	0.0182	-0.0073	-0.0462	0.0165	0.9585
26.2376	57.0129	482.6643	43.0023	-151.4604	-17.1377	414.6404	-41.5229	450.5069	-24.1821	187.6195	45.3666	526.3745	-0.0592	0.0182	-0.0073	-0.0462	0.0165	0.9585
26.2493	49.6082	411.8367	34.432	-129.6448	-12.5444	353.2956	-52.9603	505.0511	-30.5575	210.0709	57.1492	586.8176	-0.0592	0.0182	-0.0073	-0.0462	0.0165	0.9585
26.2609	40.5141	339.3253	26.5906	-107.1618	-9.0798	290.9382	-61.1111	559.7879	-36.1791	232.6104	66.6686	646.1548	-0.0592	0.0182	-0.0073	-0.0462	0.0165	0.9585
26.2726	30.3212	268.7988	19.9291	-85.143	-6.9106	230.5805	-65.8581	613.5833	-41.1216	254.7304	73.9813	703.1957	-0.0592	0.0182	-0.0073	-0.0462	0.0165	0.9585
26.2842	19.9334	203.758	14.6122	-64.7075	-5.8828	175.0568	-67.4412	664.2129	-45.6991	275.461	79.5612	755.5643	-0.0592	0.0182	-0.0073	-0.0462	0.0165	0.9585
26.2959	10.4214	146.9281	10.5705	-46.754	-5.6013	126.5832	-66.4213	709.414	-50.2016	293.8011	83.9778	800.9695	-0.0592	0.0182	-0.0073	-0.0462	0.0165	0.9585
26.3075	2.7681	99.7531	7.5712	-31.7906	-5.5663	86.2904	-63.4656	747.3679	-54.757	308.9567	87.6479	837.6533	-0.0592	0.0182	-0.0073	-0.0462	0.0165	0.9585
26.3191	-2.5228	62.5521	5.285	-19.9596	-5.3473	54.4373	-59.2776	776.9425	-59.2242	320.4419	90.6962	864.6796	-0.0592	0.0182	-0.0073	-0.0462	0.0165	0.9585
26.3308	-5.4069	34.7323	3.5	-11.1005	-4.7637	30.5207	-54.4483	797.5603	-63.3341	328.029	93.0525	881.6997	-0.0592	0.0182	-0.0073	-0.0462	0.0165	0.9585
26.3424	-6.263	15.3174	2.0557	-4.9127	-3.8073	13.7661	-49.4958	809.1618	-66.7196	331.7185	94.5134	888.9031	-0.0592	0.0182	-0.0073	-0.0462	0.0165	0.9585
26.3541	-5.727	2.9607	0.96215	-0.97345	-2.6984	3.0535	-44.7676	812.1619	-69.0613	331.7213	94.8665	886.9477	-0.0592	0.0182	-0.0073	-0.0462	0.0165	0.9585
26.3657	-4.5377	-3.8429	0.20477	1.1969	-1.6609	-2.8346	-40.4394	807.5383	-70.1745	328.4728	93.9889	877.0678	-0.0592	0.0182	-0.0073	-0.0462	0.0165	0.9585
26.3774	-3.1351	-6.7348	-0.24659	2.1173	-0.81692	-5.3286	-36.5674	796.639	-70.0874	322.5646	91.9407	860.8073	-0.0592	0.0182	-0.0073	-0.0462	0.0165	0.9585
26.389	-1.8325	-7.1096	-0.48998	2.234	-0.18695	-5.6035	-33.1102	781.1478	-69.0544	314.7188	88.9904	840.011	-0.0592	0.0182	-0.0073	-0.0462	0.0165	0.9585
26.4006	-0.73912	-6.1129	-0.5735	1.9108	0.23005	-4.711	-30.013	762.9102	-67.4723	305.7256	85.5585	816.6379	-0.0592	0.0182	-0.0073	-0.0462	0.0165	0.9585
26.4123	0.06612	-4.5138	-0.57021	1.3962	0.47365	-3.2938	-27.2675	743.871	-65.7352	296.415	82.0801	792.701	-0.0592	0.0182	-0.0073	-0.0462	0.0165	0.9585
26.4239	0.63827	-2.8382	-0.5067	0.85669	0.58645	-1.8515	-24.872	725.9836	-64.092	287.6218	78.843	770.19	-0.0592	0.0182	-0.0073	-0.0462	0.0165	0.9585
26.4356	0.96894	-1.3285	-0.42512	0.37352	0.60872	-0.5662	-22.8516	710.9822	-62.6427	280.0951	75.9779	750.8472	-0.0592	0.0182	-0.0073	-0.0462	0.0165	0.9585
26.4472	1.1616	-0.13679	-0.33482	-0.0097246	0.58089	0.39675	-21.2042	700.1779	-61.3758	274.4028	73.4911	735.9486	-0.0592	0.0182	-0.0073	-0.0462	0.0165	0.9585
26.4589	1.2205	0.74361	-0.25956	-0.29613	0.52925	1.0952	-19.9131	694.2502	-60.2724	270.8447	71.3579	726.1067	-0.0592	0.0182	-0.0073	-0.0462	0.0165	0.9585
26.4705	1.2305	1.3143	-0.19043	-0.48995	0.47334	1.5067	-18.9189	693.2784	-59.3026	269.4628	69.5192	721.3174	-0.0592	0.0182	-0.0073	-0.0462	0.0165	0.9585
26.4821	1.183	1.6712	-0.14463	-0.6176	0.42903	1.7705	-18.1402	696.9111	-58.4959	270.1036	67.9528	721.1314	-0.0592	0.0182	-0.0073	-0.0462	0.0165	0.9585
26.4938	1.1348	1.8621	-0.097971	-0.69412	0.38698	1.8967	-17.4748	704.4456	-57.8551	272.4657	66.6051	724.7491	-0.0592	0.0182	-0.0073	-0.0462	0.0165	0.9585
26.5054	1.0536	1.9837	-0.074615	-0.74499	0.35631	1.9997	-16.8011	714.9655	-57.3852	276.1512	65.4235	731.1945	-0.0592	0.0182	-0.0073	-0.0462	0.0165	0.9585
26.5171	0.99167	2.0458	-0.04884	-0.77231	0.32174	2.0462	-15.9901	727.4233	-57.0413	280.7105	64.307	739.3736	-0.0592	0.0182	-0.0073	-0.0462	0.0165	0.9585
26.5287	0.89237	2.0829	-0.043042	-0.7833	0.29107	2.0956	-14.9236	740.7545	-56.7636	285.6848	63.1497	748.2028	-0.0592	0.0182	-0.0073	-0.0462	0.0165	0.9585
26.5404	0.79651	2.0568	-0.029805	-0.76709	0.24767	2.0807	-13.5036	753.8934	-56.4953	290.622	61.8566	756.6256	-0.0592	0.0182	-0.0073	-0.0462	0.0165	0.9585
26.552	0.64586	1.9455	-0.022801	-0.71392	0.18837	2.0023	-11.7048	765.8366	-56.2211	295.0928	60.399	763.7015	-0.0592	0.0182	-0.0073	-0.0462	0.0165	0.9585
26.5636	0.47711	1.6761	0.00021012	-0.59758	0.098261	1.7364	-9.5526	775.6199	-55.9789	298.6901	58.8181	768.5474	-0.0592	0.0182	-0.0073	-0.0462	0.0165	0.9585
